<?xml version="1.0" encoding="UTF-8"?>
<svg width="22px" height="22px" viewBox="0 0 22 22" version="1.1" xmlns="http://www.w3.org/2000/svg" xmlns:xlink="http://www.w3.org/1999/xlink">
    <!-- Generator: Sketch 55 (78076) - https://sketchapp.com -->
    <title>twitter</title>
    <desc>Created with Sketch.</desc>
    <defs>
        <polygon id="path-1" points="0.00182926829 0.00347362654 26.0018293 0.00347362654 26.0018293 22.0000046 0.00182926829 22.0000046"></polygon>
    </defs>
    <g id="Q2_GP" stroke="none" stroke-width="1" fill="none" fill-rule="evenodd">
        <g id="Product-detail-1-Copy-3复制-7" transform="translate(-493.000000, -797.000000)">
            <g id="share" transform="translate(361.000000, 797.000000)">
                <g id="twitter" transform="translate(132.000000, 0.000000)">
                    <mask id="mask-2" fill="white">
                        <use xlink:href="#path-1"></use>
                    </mask>
                    <g id="Clip-2"></g>
                    <rect id="矩形-2" fill="#595959" mask="url(#mask-2)" x="0" y="0" width="22" height="22" rx="11"></rect>
                    <path d="M16.0945001,8.57650109 L16.0945001,8.57037973 C16.1991617,8.52837244 16.2816606,8.43942468 16.3646869,8.3736238 C16.7397111,8.07694076 16.9836336,7.68636174 17.1634261,7.18698189 L16.857234,7.35905685 C16.5420771,7.52326578 16.0073577,7.75927664 15.5957714,7.79546337 C15.1109,7.34191102 14.6035289,6.98517245 13.6498991,7.00233333 L13.3495516,7.0392871 C13.1551255,7.08299393 12.9698545,7.13709354 12.8028206,7.21142222 C12.1045683,7.52249873 11.6285005,8.10296031 11.4095239,8.90819772 C11.3223229,9.22856907 11.2869035,9.7639702 11.3975123,10.0949148 C11.0036065,10.0943283 10.6222396,10.0305728 10.2924198,9.94720499 C8.99250558,9.61896761 8.18285337,9.17546212 7.28397872,8.45353239 C7.02003207,8.24155578 6.76105117,8.0012735 6.55128836,7.73424974 C6.48359884,7.64823483 6.37688641,7.57273301 6.32910384,7.46975274 C6.32504628,7.46781256 6.32103266,7.46575205 6.31709229,7.46358626 C6.21266498,7.66226733 6.11458036,7.87747759 6.05289662,8.12141464 C5.80914989,9.08281447 6.19445722,9.89021766 6.6054722,10.4146244 C6.72998225,10.5736746 6.93190825,10.672248 7.05584702,10.8204843 L7.06781463,10.8204843 C6.97465182,10.855904 6.81267157,10.8067977 6.73147637,10.789697 C6.53943793,10.7490433 6.37578779,10.7116684 6.21489151,10.6422278 L5.96272205,10.519214 C5.95878167,11.581308 6.48129907,12.2716232 7.12182269,12.6832284 C7.33067731,12.8174171 7.62283647,12.9982003 7.92656775,13.0151206 C7.76400157,13.1560623 7.06878141,13.0913744 6.82742235,13.0644073 C7.12914681,13.8618388 7.5926318,14.392758 8.38895412,14.6811689 C8.59442499,14.755663 8.84511498,14.8215241 9.12164447,14.8164706 C8.97488375,14.9955543 8.66154323,15.1414894 8.45492979,15.2652702 C8.02892965,15.521074 7.53431715,15.6870426 6.97746428,15.8125982 C6.7541372,15.862652 6.51677711,15.8524247 6.27468563,15.8922662 C6.00712086,15.9365596 5.72720763,15.868999 5.48797256,15.8614789 L5.7041513,15.9967806 C5.92799107,16.1357821 6.16076626,16.2590366 6.40090952,16.3656716 C6.84693381,16.5660673 7.32226922,16.7171762 7.84840473,16.8513649 C8.90924498,17.1216824 10.4058264,17.0001877 11.3318736,16.7039107 C13.910711,15.8785796 15.5396979,13.9523057 16.1546897,11.1152271 C16.2604353,10.6271876 16.2758306,10.0729411 16.268902,9.49213358 L16.6532572,9.17851528 C16.9706992,8.91747752 17.2682489,8.55363998 17.4879726,8.19479579 L17.4879726,8.1886293 C17.0695309,8.3233444 16.6288679,8.57074069 16.0945001,8.57650109 Z" id="Fill-1" fill="#FFFFFF" mask="url(#mask-2)"></path>
                </g>
            </g>
        </g>
    </g>
</svg>