<?xml version="1.0" encoding="UTF-8"?>
<svg width="14px" height="16px" viewBox="0 0 14 16" version="1.1" xmlns="http://www.w3.org/2000/svg" xmlns:xlink="http://www.w3.org/1999/xlink">
    <title>商品-选中</title>
    <defs>
        <linearGradient x1="5.71764858e-13%" y1="23.2218736%" x2="70.5526061%" y2="69.070396%" id="linearGradient-1">
            <stop stop-color="#FF8A4A" offset="0%"></stop>
            <stop stop-color="#FF5224" offset="100%"></stop>
            <stop stop-color="#FF5224" offset="100%"></stop>
        </linearGradient>
        <linearGradient x1="5.71764858e-13%" y1="37.5017041%" x2="70.5526061%" y2="58.9008264%" id="linearGradient-2">
            <stop stop-color="#FF8A4A" offset="0%"></stop>
            <stop stop-color="#FF5224" offset="100%"></stop>
            <stop stop-color="#FF5224" offset="100%"></stop>
        </linearGradient>
    </defs>
    <g id="--" stroke="none" stroke-width="1" fill="none" fill-rule="evenodd">
        <g id="直播中" transform="translate(-404.000000, -335.000000)" fill-rule="nonzero">
            <g id="编组-29" transform="translate(372.000000, 159.000000)">
                <g id="编组-30" transform="translate(20.000000, 174.000000)">
                    <g id="商品-选中" transform="translate(12.000000, 2.000000)">
                        <path d="M13.6667412,5.34457657 C13.3932344,5.01934676 12.9785172,4.83249421 12.5294561,4.83249421 L1.47131419,4.83249421 C1.0233242,4.83249421 0.608710605,5.01888031 0.335082906,5.34409284 C0.0610578687,5.66932265 -0.0525808047,6.10981505 0.0227579352,6.54866626 L1.1768176,13.5411073 C1.32595756,14.4032272 2.12726744,15.0779935 3.00227489,15.0779935 L10.9979426,15.0779935 C11.871948,15.0779935 12.6731715,14.4032271 12.8234863,13.5373412 L13.9763539,6.5530197 C14.0533511,6.11036787 13.9402825,5.66987547 13.6667412,5.34457657 Z M3.73735024,9.14323176 C3.14286345,9.14323176 2.65978679,8.6601551 2.65978679,8.06615201 C2.65978679,7.4722526 3.14286345,6.98917592 3.73735024,6.98917592 C4.33076595,6.98917592 4.81384261,7.47225258 4.81384261,8.06615201 C4.81384261,8.65958501 4.33078322,9.14323176 3.73735024,9.14323176 Z M10.2305619,9.14323176 C9.63664523,9.14323176 9.15356857,8.6601551 9.15356857,8.06615201 C9.15356857,7.4722526 9.63664523,6.98917592 10.2305619,6.98917592 C10.8245823,6.98917592 11.3076244,7.47225258 11.3076244,8.06615201 C11.3076244,8.65958501 10.8245823,9.14323176 10.2305619,9.14323176 Z" id="形状" fill="url(#linearGradient-1)"></path>
                        <path d="M3.23062333,4.30152968 C3.52791855,4.30152968 3.76915457,4.06025912 3.76915457,3.76308481 C3.76915457,2.08184396 5.39756674,1.07699337 6.97159542,1.07699337 C8.51058927,1.07699337 10.231132,2.22834077 10.231132,3.76947679 C10.231132,4.066772 10.4718152,4.30800802 10.7695769,4.30800802 C11.0674422,4.30800802 11.3081254,4.066772 11.3086955,3.76947679 C11.3086955,1.54823628 9.02325898,0 6.97209643,0 C4.8682434,0 2.69209212,1.40763043 2.69209212,3.76308481 C2.69209212,4.06025912 2.9333281,4.30152968 3.23062333,4.30152968 Z" id="路径" fill="url(#linearGradient-2)"></path>
                    </g>
                </g>
            </g>
        </g>
    </g>
</svg>