<?xml version="1.0" encoding="UTF-8"?>
<svg width="50px" height="50px" viewBox="0 0 50 50" version="1.1" xmlns="http://www.w3.org/2000/svg" xmlns:xlink="http://www.w3.org/1999/xlink">
    <title>结束</title>
    <g id="--" stroke="none" stroke-width="1" fill="none" fill-rule="evenodd">
        <g id="直播结束" transform="translate(-841.000000, -395.000000)" fill="#FFFFFF" fill-rule="nonzero">
            <g id="编组-6" transform="translate(372.000000, 159.000000)">
                <g id="编组-13" transform="translate(434.000000, 236.000000)">
                    <g id="结束" transform="translate(35.000000, 0.000000)">
                        <path d="M25,0 C38.80625,0 50,11.19375 50,25 C50,38.80625 38.80625,50 25,50 C11.19375,50 0,38.80625 0,25 C0,11.19375 11.19375,0 25,0 Z M25,4.16666665 C13.49375,4.16666665 4.16666665,13.49375 4.16666665,25 C4.16666665,36.50625 13.49375,45.8333333 25,45.8333333 C36.50625,45.8333333 45.8333333,36.50625 45.8333333,25 C45.8333333,13.49375 36.50625,4.16666665 25,4.16666665 Z M29.1666667,16.6666667 C30.2717354,16.6666667 31.3315434,17.1056535 32.1129449,17.8870551 C32.8943465,18.6684566 33.3333333,19.7282646 33.3333333,20.8333333 L33.3333333,29.1666667 C33.3333333,30.2717354 32.8943465,31.3315434 32.1129449,32.1129449 C31.3315434,32.8943465 30.2717354,33.3333333 29.1666667,33.3333333 L20.8333333,33.3333333 C19.7282646,33.3333333 18.6684566,32.8943465 17.8870551,32.1129449 C17.1056535,31.3315434 16.6666667,30.2717354 16.6666667,29.1666667 L16.6666667,20.8333333 C16.6666667,19.7282646 17.1056535,18.6684566 17.8870551,17.8870551 C18.6684566,17.1056535 19.7282646,16.6666667 20.8333333,16.6666667 L29.1666667,16.6666667 L29.1666667,16.6666667 Z" id="形状"></path>
                    </g>
                </g>
            </g>
        </g>
    </g>
</svg>