<?xml version="1.0" encoding="UTF-8"?>
<svg width="10px" height="14px" viewBox="0 0 10 14" version="1.1" xmlns="http://www.w3.org/2000/svg" xmlns:xlink="http://www.w3.org/1999/xlink">
    <title>暂停</title>
    <g id="--" stroke="none" stroke-width="1" fill="none" fill-rule="evenodd">
        <g id="直播回放" transform="translate(-418.000000, -682.000000)" fill="#FFFFFF" fill-rule="nonzero">
            <g id="编组-13" transform="translate(372.000000, 159.000000)">
                <g id="编组-6" transform="translate(20.000000, 510.000000)">
                    <g id="暂停" transform="translate(26.000000, 13.000000)">
                        <path d="M8.52037802,0 C7.70407044,0 7.04080764,0.714269129 7.04080764,1.47957038 L7.04080764,12.4999549 C7.04080764,13.3162624 7.75507677,13.9795252 8.52037802,13.9795252 C9.28567927,13.9795252 10,13.2652561 10,12.4999549 L10,1.47957038 C10,0.663262805 9.28570507,0 8.52040382,0 L8.52037802,0 Z M1.47959618,0 C0.663288605,0 0,0.714269129 0,1.47957038 L0,12.4999549 C0,13.3162624 0.714294929,13.9795252 1.47959618,13.9795252 C2.24489743,13.9795252 2.95916656,13.2652561 2.95916656,12.4999549 L2.95916656,1.47957038 C3.01019868,0.663262805 2.29590376,0 1.47959618,0 Z" id="形状"></path>
                    </g>
                </g>
            </g>
        </g>
    </g>
</svg>