<?xml version="1.0" encoding="UTF-8"?>
<svg width="22px" height="22px" viewBox="0 0 22 22" version="1.1" xmlns="http://www.w3.org/2000/svg" xmlns:xlink="http://www.w3.org/1999/xlink">
    <!-- Generator: Sketch 55.1 (78136) - https://sketchapp.com -->
    <title>Pinterest@3x</title>
    <desc>Created with Sketch.</desc>
    <defs>
        <polygon id="path-1" points="0 0.000125356125 22 0.000125356125 22 22 0 22"></polygon>
    </defs>
    <g id="Q2_GP" stroke="none" stroke-width="1" fill="none" fill-rule="evenodd">
        <g id="Product-detail-1-Copy-3复制-7备份" transform="translate(-530.000000, -797.000000)">
            <g id="share" transform="translate(361.000000, 797.000000)">
                <g id="pinterest" transform="translate(169.000000, 0.000000)">
                    <mask id="mask-2" fill="white">
                        <use xlink:href="#path-1"></use>
                    </mask>
                    <g id="Clip-2"></g>
                    <path d="M21.9814111,10.9954872 C21.9814111,12.9918775 21.4899943,14.8329202 20.5072859,16.5188661 C19.5245462,18.2046866 18.1914964,19.5396353 16.508074,20.5237749 C14.8245263,21.5078832 12.9861024,22 10.9925519,22 C9.93414225,22 8.89460313,21.8472222 7.87409104,21.5415413 C8.43679659,20.6527977 8.80854339,19.8698234 8.98920626,19.1924615 C9.07467141,18.8673191 9.33222475,17.8599573 9.76202276,16.1704701 C9.95235562,16.5432165 10.3004125,16.8654131 10.8057553,17.1368091 C11.3110982,17.4082365 11.8549644,17.5444672 12.4373542,17.5456895 C13.5909616,17.5456895 14.6213627,17.2187293 15.5284011,16.5646524 C16.4353457,15.9105755 17.1361536,15.0101738 17.6305121,13.8634786 C18.1249957,12.7167835 18.3727852,11.4276211 18.3740057,9.99605413 C18.3740057,8.90677208 18.0901337,7.88483761 17.5224523,6.92996866 C16.9548649,5.97522507 16.1320398,5.19701425 15.0541024,4.59558689 C13.976165,3.99412821 12.7601878,3.69336752 11.4063272,3.69336752 C10.4052802,3.69336752 9.47085917,3.83207407 8.60278236,4.1095812 C7.73486202,4.38708832 6.99809673,4.75510256 6.39261166,5.21356125 C5.78715789,5.6719886 5.26713798,6.19948718 4.83242674,6.79618234 C4.39784068,7.3927208 4.07866856,8.0112906 3.87475391,8.65189174 C3.67087055,9.29252422 3.56828734,9.93252991 3.56706686,10.5719088 C3.56706686,11.5658262 3.75752489,12.4398718 4.13844097,13.1942336 C4.51935704,13.9484387 5.07727454,14.4783818 5.81209957,14.7840627 C6.09778663,14.8990142 6.27907539,14.8036496 6.35596586,14.4979687 C6.37552489,14.4307778 6.41342248,14.2828889 6.46950213,14.054208 C6.52573826,13.8256524 6.56351067,13.6825584 6.5830697,13.6251453 C6.64040114,13.4050199 6.58798293,13.1997493 6.42562731,13.0090199 C5.93971835,12.4258006 5.69681081,11.7045328 5.69681081,10.8451538 C5.69681081,9.40258689 6.19483073,8.1634416 7.19099573,7.12803134 C8.18716074,6.09249573 9.49163869,5.57417949 11.1042731,5.57295726 C12.5447881,5.57295726 13.6678521,5.96482051 14.473559,6.74842165 C15.279266,7.53202279 15.6821821,8.54919373 15.6821821,9.79980912 C15.6821821,11.4233276 15.3555619,12.8035926 14.7025092,13.9404786 C14.0493627,15.0775214 13.2124865,15.645886 12.1920057,15.645886 C11.6096159,15.645886 11.1420455,15.4381396 10.7892632,15.0224274 C10.4364495,14.6068091 10.3265434,14.1079544 10.45967,13.526114 C10.53534,13.1923846 10.6617383,12.7461795 10.838771,12.1874672 C11.0157724,11.628755 11.1585377,11.1366382 11.2672233,10.7112108 C11.375909,10.2858148 11.4307994,9.92516524 11.4320199,9.62929345 C11.4320199,9.15124786 11.3031807,8.75521652 11.045596,8.44098006 C10.7880427,8.12683761 10.4205519,7.96917094 9.94331152,7.96794872 C9.35240967,7.96794872 8.8519175,8.23997151 8.44167852,8.78398575 C8.03156472,9.32803134 7.82642959,10.0058632 7.82642959,10.8176068 C7.82642959,11.5143989 7.94550498,12.0969915 8.18349929,12.5652279 L6.76805121,18.5543048 C6.60569559,19.2230798 6.54335704,20.0683561 6.58125462,21.0904473 C4.61702703,20.2212593 3.02870839,18.8795726 1.81654908,17.0653248 C0.60426458,15.2511083 -0.00122048364,13.2308376 -1.84139602e-06,11.0046695 C-1.84139602e-06,9.00824786 0.491416785,7.16707977 1.47412518,5.4812906 C2.45686486,3.79547009 3.78991465,2.46049003 5.47333713,1.47638177 C7.15688478,0.492242165 8.99530868,0.000125356125 10.9888905,0.000125356125 C12.982441,0.000125356125 14.8208649,0.492242165 16.5044125,1.47638177 C18.187835,2.46049003 19.5208848,3.79547009 20.5036245,5.4812906 C21.4863329,7.16707977 21.9777496,9.00824786 21.9777496,11.0046695 L21.9814111,10.9954872 Z" id="Fill-1" fill-opacity="0.65" fill="#000000" mask="url(#mask-2)"></path>
                </g>
            </g>
        </g>
    </g>
</svg>