<?xml version="1.0" encoding="UTF-8"?>
<svg width="12px" height="12px" viewBox="0 0 12 12" version="1.1" xmlns="http://www.w3.org/2000/svg" xmlns:xlink="http://www.w3.org/1999/xlink">
    <!-- Generator: Sketch 63.1 (92452) - https://sketch.com -->
    <title>Icon-copy</title>
    <desc>Created with Sketch.</desc>
    <g id="圣诞节活动" stroke="none" stroke-width="1" fill="none" fill-rule="evenodd">
        <g id="桌面端-HD" transform="translate(-1041.000000, -1633.000000)" fill="#FF0045" fill-rule="nonzero">
            <g id="编组-16" transform="translate(310.000000, 1123.000000)">
                <g id="编组-2备份-17" transform="translate(529.000000, 160.000000)">
                    <g id="商品卡片">
                        <g id="编组-3" transform="translate(12.000000, 346.000000)">
                            <g id="Icon-fuzhi" transform="translate(190.000000, 4.000000)">
                                <path d="M9.50651042,0.967447917 L1.42578125,0.967447917 C1.30338542,0.967447917 1.18619792,1.015625 1.10026042,1.1015625 C1.01432292,1.1875 0.96484375,1.3046875 0.966145833,1.42708333 L0.966145833,9.50911458 C0.954427083,9.71484375 0.783854167,9.875 0.578125,9.875 C0.372395833,9.875 0.201822917,9.71614583 0.188802083,9.51041667 L0.188802083,1.4296875 C0.188802083,0.74609375 0.743489583,0.19140625 1.42708333,0.19140625 L9.5078125,0.19140625 C9.64583333,0.19140625 9.77473958,0.265625 9.84375,0.385416667 C9.91276042,0.505208333 9.91276042,0.653645833 9.84375,0.7734375 C9.7734375,0.893229167 9.64583333,0.967447917 9.50651042,0.967447917 Z M11.0598958,2.52083333 L2.51822917,2.52083333 L2.51822917,11.0625 L11.0598958,11.0625 L11.0598958,2.52083333 Z M11.0625,11.8398438 L2.51692708,11.8398438 C2.31119792,11.8398438 2.11328125,11.7578125 1.96875,11.6119792 C1.82291667,11.4661458 1.74088542,11.2695313 1.74088542,11.0638021 L1.74088542,2.51953125 C1.74088542,2.09114583 2.08854167,1.74348958 2.51692708,1.74348958 L11.0611979,1.74348958 C11.4895833,1.74348958 11.8372432,2.09114583 11.8372432,2.51953125 L11.8372432,11.0651042 C11.8385417,11.4934896 11.4895833,11.8398438 11.0625,11.8398438 L11.0625,11.8398438 Z" id="形状"></path>
                            </g>
                        </g>
                    </g>
                </g>
            </g>
        </g>
    </g>
</svg>