<?xml version="1.0" encoding="UTF-8"?>
<svg width="13px" height="14px" viewBox="0 0 13 14" version="1.1" xmlns="http://www.w3.org/2000/svg" xmlns:xlink="http://www.w3.org/1999/xlink">
    <!-- Generator: Sketch 55.1 (78136) - https://sketchapp.com -->
    <title>Clip 2@3x</title>
    <desc>Created with Sketch.</desc>
    <defs>
        <polygon id="path-1" points="0.00126829268 0.0083958021 12.9872748 0.0083958021 12.9872748 13.9790525 0.00126829268 13.9790525"></polygon>
    </defs>
    <g id="Q1_UI" stroke="none" stroke-width="1" fill="none" fill-rule="evenodd">
        <g id="orders-copy-2" transform="translate(-655.000000, -647.000000)">
            <g id="fuzhi-(2)" transform="translate(655.000000, 647.000000)">
                <mask id="mask-2" fill="white">
                    <use xlink:href="#path-1"></use>
                </mask>
                <g id="Clip-2"></g>
                <path d="M12.4462,10.7550225 C12.1474537,10.7550225 11.9050195,10.5142939 11.9050195,10.2176492 L11.9050195,1.08303748 L3.78794634,1.08303748 C3.48896748,1.08303748 3.24687154,0.842308846 3.24687154,0.545769115 C3.24687154,0.249124438 3.48896748,0.0083958021 3.78794634,0.0083958021 L11.9050195,0.0083958021 C12.5027659,0.0083958021 12.9872748,0.489601199 12.9872748,1.08303748 L12.9872748,10.2176492 C12.9872748,10.5142939 12.7451789,10.7550225 12.4462,10.7550225 Z M9.74050894,4.20706945 L9.74050894,12.0043139 C9.74050894,12.5426247 9.25589431,12.9790528 8.65825366,12.9790528 L1.08225528,12.9790528 C0.484614634,12.9790528 0,12.5426247 0,12.0043139 L0,4.20706945 C0,3.66875867 0.484614634,3.23242579 1.08225528,3.23242579 L8.65825366,3.23242579 C9.25589431,3.23242579 9.74050894,3.66875867 9.74050894,4.20706945 Z M1.08225528,11.9043055 L8.65825366,11.9043055 L8.65825366,4.30706747 L1.08225528,4.30706747 L1.08225528,11.9043055 Z" id="Fill-1" fill-opacity="0.65" fill="#000000" mask="url(#mask-2)"></path>
            </g>
        </g>
    </g>
</svg>