<?xml version="1.0" encoding="UTF-8"?>
<svg width="28px" height="36px" viewBox="0 0 28 36" version="1.1" xmlns="http://www.w3.org/2000/svg" xmlns:xlink="http://www.w3.org/1999/xlink">
    <title>pdf</title>
    <g id="站内信板块" stroke="none" stroke-width="1" fill="none" fill-rule="evenodd">
        <g id="商家中心_邮件消息备份-4" transform="translate(-804.000000, -352.000000)" fill-rule="nonzero">
            <g id="编组-12备份-5" transform="translate(605.000000, 302.000000)">
                <g id="pdf" transform="translate(199.000000, 50.000000)">
                    <path d="M27.6259007,9.028125 C27.8650204,9.268875 27.9999902,9.5945625 27.9999902,9.936 L27.9999902,34.714125 C28.0013192,35.0542071 27.8679524,35.380862 27.6292818,35.6220757 C27.3906112,35.8632894 27.0662339,35.9992559 26.727662,36 L1.27289801,36 C0.934228937,35.9994051 0.609707687,35.8635044 0.370915955,35.6222745 C0.132124223,35.3810445 -0.00131931584,35.0543043 9.83475854e-06,34.714125 L9.83475854e-06,1.285875 C-0.00131931584,0.945695664 0.132124223,0.618955462 0.370915955,0.377725532 C0.609707687,0.136495603 0.934228937,0.000594937464 1.27289801,0 L18.1641541,0 C18.5023936,0 18.8283132,0.1366875 19.0668728,0.3774375 L27.6259007,9.0286875 L27.6259007,9.028125 Z M24.6399849,10.6875 L17.3599952,3.375 L17.3599952,10.6875 L24.6399849,10.6875 Z" id="形状" fill="#EC2C2C"></path>
                    <path d="M6.39,24.4 L6.61876479,21.77 L7.60876479,21.77 C9.19876479,21.77 10.5348717,21.01 10.6818727,19.32 C10.8340926,17.57 9.62367279,17 7.98367279,17 L5.55367279,17 L4.91,24.4 L6.39,24.4 Z M7.61053467,20.6 L6.72053467,20.6 L6.9319029,18.17 L7.7719029,18.17 C8.7919029,18.17 9.30667789,18.46 9.23187267,19.32 C9.15793728,20.17 8.63053467,20.6 7.61053467,20.6 Z M13.69,24.4 C15.87,24.4 17.3778587,23.16 17.5944459,20.67 C17.8119029,18.17 16.5136728,17 14.2536728,17 L12.2236728,17 L11.58,24.4 L13.69,24.4 Z M13.6235095,23.21 L13.1635095,23.21 L13.6010331,18.18 L14.0610331,18.18 C15.4410331,18.18 16.2418848,18.86 16.0844459,20.67 C15.9278768,22.47 15.0035095,23.21 13.6235095,23.21 Z M20.2,24.4 L20.4609484,21.4 L23.0909484,21.4 L23.1988071,20.16 L20.5688071,20.16 L20.7366839,18.23 L23.8166839,18.23 L23.9236728,17 L19.3636728,17 L18.72,24.4 L20.2,24.4 Z" id="PDF" fill="#FFFFFF"></path>
                </g>
            </g>
        </g>
    </g>
</svg>