<?xml version="1.0" encoding="UTF-8"?>
<svg width="18px" height="18px" viewBox="0 0 18 18" version="1.1" xmlns="http://www.w3.org/2000/svg" xmlns:xlink="http://www.w3.org/1999/xlink">
    <title>关闭</title>
    <g id="--" stroke="none" stroke-width="1" fill="none" fill-rule="evenodd">
        <g id="直播中" transform="translate(-640.000000, -315.000000)" fill="#FFFFFF" fill-rule="nonzero">
            <g id="编组-29" transform="translate(372.000000, 159.000000)">
                <g id="关闭" transform="translate(268.000000, 156.000000)">
                    <path d="M8.99994854,18 C4.03717519,18 0,13.9628088 0,8.99991764 C0,4.03719114 4.03717517,0 8.99994854,0 C13.9628248,0 18,4.03719116 18,8.99991764 C18,13.9628088 13.9628248,18 8.99994854,18 L8.99994854,18 Z M8.99994854,1.29148774 C4.74941926,1.29148774 1.29146866,4.74941379 1.29146866,8.99991764 C1.29146866,13.2498656 4.74939866,16.7084917 8.99994854,16.7084917 C13.2498808,16.7084917 16.7085108,13.2498656 16.7085108,8.99991764 C16.7085108,4.74941381 13.2498808,1.29148774 8.99994854,1.29148774 L8.99994854,1.29148774 Z M9.90514392,9.02758798 L12.6848825,6.27807581 C12.9374775,6.02873406 12.9394333,5.62174968 12.6899884,5.36917559 C12.4405434,5.11647799 12.0329615,5.11452213 11.7809636,5.36394623 L8.99739561,8.1167319 L6.2563214,5.36717855 C6.00492055,5.11588094 5.59861511,5.11452211 5.34729661,5.36592267 C5.09589576,5.61662324 5.09529871,6.02352526 5.34602015,6.27492582 L8.08328557,9.02050568 L5.32345564,11.7507475 C5.07086069,12.000851 5.06890482,12.4070736 5.3183498,12.6597506 C5.44430757,12.787067 5.60958854,12.8506223 5.77546659,12.8506223 C5.93868877,12.8506223 6.10201388,12.7883435 6.22737459,12.6648564 L8.99101333,9.93150587 L11.7771342,12.7266206 C11.9024949,12.8525988 12.0670965,12.9155776 12.2322746,12.9155776 C12.3968761,12.9155776 12.5607777,12.8525988 12.6861384,12.7279176 C12.9374569,12.4771964 12.9381363,12.0709121 12.6874355,11.8189145 L9.90514392,9.02758798 L9.90514392,9.02758798 Z" id="形状"></path>
                </g>
            </g>
        </g>
    </g>
</svg>