<?xml version="1.0" encoding="UTF-8"?>
<svg width="12px" height="9px" viewBox="0 0 12 9" version="1.1" xmlns="http://www.w3.org/2000/svg" xmlns:xlink="http://www.w3.org/1999/xlink">
    <title>观看人数</title>
    <g id="--" stroke="none" stroke-width="1" fill="none" fill-rule="evenodd" fill-opacity="0.45">
        <g id="直播列表" transform="translate(-564.000000, -221.000000)" fill="#000000" fill-rule="nonzero">
            <g id="编组-6备份" transform="translate(513.000000, 179.000000)">
                <g id="观看人数" transform="translate(51.000000, 42.000000)">
                    <path d="M6,0 C3.27272476,0 0.943645509,1.69636224 0,4.09090594 C0.943631665,6.48544965 3.27272476,8.18181187 6,8.18181187 C8.73000061,8.18181187 11.0563683,6.48544963 12,4.09090594 C11.0563545,1.69636223 8.73000061,0 6,0 Z M6,6.81818118 C4.4945527,6.81818118 3.27272476,5.59636706 3.27272476,4.09090594 C3.27272476,2.58544481 4.49453887,1.3636307 6,1.3636307 C7.50546113,1.3636307 8.72727524,2.58544481 8.72727524,4.09090594 C8.72727524,5.59636706 7.5054473,6.81818118 6,6.81818118 Z M6,2.45454356 C5.0972767,2.45454356 4.36363762,3.18818263 4.36363762,4.09090594 C4.36363762,4.99362924 5.0972767,5.72726832 6,5.72726832 C6.9027233,5.72726832 7.63636238,4.99362924 7.63636238,4.09090594 C7.63636238,3.18818263 6.9027233,2.45454356 6,2.45454356 Z" id="形状"></path>
                </g>
            </g>
        </g>
    </g>
</svg>