<?xml version="1.0" encoding="UTF-8"?>
<svg width="12px" height="12px" viewBox="0 0 12 12" version="1.1" xmlns="http://www.w3.org/2000/svg" xmlns:xlink="http://www.w3.org/1999/xlink">
    <title>maximize全屏</title>
    <g id="--" stroke="none" stroke-width="1" fill="none" fill-rule="evenodd">
        <g id="直播中" transform="translate(-1260.000000, -188.000000)" fill="#FFFFFF" fill-rule="nonzero">
            <g id="编组-29" transform="translate(372.000000, 159.000000)">
                <g id="编组-24" transform="translate(876.000000, 20.000000)">
                    <g id="maximize全屏" transform="translate(12.000000, 9.000000)">
                        <path d="M1.20000001,8.4 L1.20000001,10.2 L1.206,10.2816 C1.24189888,10.5484224 1.45161982,10.7583889 1.71840001,10.7946 L1.8,10.8 L3.6,10.8 C3.93137084,10.8 4.19999997,11.0686292 4.19999997,11.4 C4.19999997,11.7313708 3.93137084,12 3.6,12 L1.8,12 C0.80588745,12 0,11.1941126 0,10.2 L0,8.4 C0,8.06862915 0.268629152,7.8 0.600000004,7.8 C0.931370856,7.8 1.20000001,8.06862915 1.20000001,8.4 L1.20000001,8.4 Z M12,8.4 L12,10.2 C12,11.1941126 11.1941126,12 10.2,12 L8.4,12 C8.06862915,12 7.8,11.7313708 7.8,11.4 C7.8,11.0686291 8.06862915,10.8 8.4,10.8 L10.2,10.8 L10.2816,10.794 C10.5484224,10.7581011 10.7583889,10.5483802 10.7946,10.2816 L10.8,10.2 L10.8,8.4 C10.8,8.06862916 11.0686292,7.80000003 11.4,7.80000003 C11.7313708,7.80000003 12,8.06862916 12,8.4 L12,8.4 Z M4.2,0.600000004 C4.2,0.931370856 3.93137085,1.20000001 3.6,1.20000001 L1.8,1.20000001 L1.71840001,1.206 C1.45157762,1.24189888 1.24161112,1.45161982 1.20540001,1.71840001 L1.20000001,1.8 L1.20000001,3.6 C1.20000001,3.93137085 0.931370856,4.2 0.600000004,4.2 C0.268629152,4.2 0,3.93137085 0,3.6 L0,1.8 C0,0.80588745 0.80588745,0 1.8,0 L3.6,0 C3.93137085,0 4.2,0.268629152 4.2,0.600000004 Z M10.2,0 C11.1941126,0 12,0.80588745 12,1.8 L12,3.6 C12,3.93137085 11.7313708,4.2 11.4,4.2 C11.0686291,4.2 10.8,3.93137085 10.8,3.6 L10.8,1.8 L10.794,1.71840001 C10.7539842,1.42110894 10.4999715,1.19942513 10.2,1.20000001 L8.4,1.20000001 C8.06862915,1.20000001 7.8,0.931370856 7.8,0.600000004 C7.8,0.268629152 8.06862915,0 8.4,0 L10.2,0 Z" id="形状"></path>
                    </g>
                </g>
            </g>
        </g>
    </g>
</svg>