<?xml version="1.0" encoding="UTF-8"?>
<svg width="30px" height="30px" viewBox="0 0 30 30" version="1.1" xmlns="http://www.w3.org/2000/svg" xmlns:xlink="http://www.w3.org/1999/xlink">
    <title>未开启提醒</title>
    <g id="--" stroke="none" stroke-width="1" fill="none" fill-rule="evenodd">
        <g id="直播列表" transform="translate(-1045.000000, -314.000000)" fill="#FFFFFF">
            <g id="编组-6备份-2" transform="translate(946.000000, 179.000000)">
                <g id="2" transform="translate(14.000000, 60.000000)">
                    <g id="未开启提醒" transform="translate(85.000000, 75.000000)">
                        <circle id="椭圆形" stroke="#FFFFFF" fill-opacity="0" cx="15" cy="15" r="14.5"></circle>
                        <g id="提醒" transform="translate(9.000000, 8.000000)" fill-rule="nonzero">
                            <path d="M11.8336414,9.7818854 L11.8336414,9.77079482 C11.8225508,9.75970425 11.8225508,9.74861368 11.8114603,9.74861368 C11.767098,9.68207024 11.7227357,9.6155268 11.6672828,9.54898336 C10.8687616,8.43992606 10.1589649,7.09796673 10.1589649,5.35674677 C10.1589649,3.26062847 8.89463956,1.5194085 6.99815157,1.06469501 L6.99815157,0.998151571 C6.99815157,0.454713494 6.55452865,0 6,0 C5.45656192,0 5.00184843,0.443622921 5.00184843,0.998151571 L5.00184843,1.06469501 C3.10536044,1.5194085 1.84103512,3.26062847 1.84103512,5.35674677 C1.84103512,7.21996303 1.03142329,8.61737523 0.166358595,9.75970425 L0.155268022,9.79297597 C0.0554528651,9.97042514 0,10.1700555 0,10.3585952 L0,10.3918669 C0.0443622921,11.7338262 2.70609982,12.2772643 6,12.2772643 C9.31608133,12.2772643 12,11.7338262 12,10.3696858 C12,10.1589649 11.9445471,9.97042514 11.8336414,9.7818854 L11.8336414,9.7818854 Z M4.08133087,12.676525 C4.52495379,13.3530499 5.29020333,13.7966728 6.1663586,13.7966728 C7.05360444,13.7966728 7.82994455,13.3308688 8.26247689,12.6432532 C7.56377079,12.7097967 6.79852126,12.7430684 6,12.7430684 C5.32347505,12.754159 4.68022181,12.7319778 4.08133087,12.676525 Z" id="形状"></path>
                        </g>
                    </g>
                </g>
            </g>
        </g>
    </g>
</svg>