<?xml version="1.0" encoding="UTF-8"?>
<svg width="18px" height="18px" viewBox="0 0 18 18" version="1.1" xmlns="http://www.w3.org/2000/svg" xmlns:xlink="http://www.w3.org/1999/xlink">
    <title>直播中@2x</title>
    <defs>
        <linearGradient x1="11.2958835%" y1="13.8934999%" x2="85.5580882%" y2="88.4385355%" id="linearGradient-1">
            <stop stop-color="#FE404B" offset="0%"></stop>
            <stop stop-color="#FC1564" offset="100%"></stop>
        </linearGradient>
    </defs>
    <g id="--" stroke="none" stroke-width="1" fill="none" fill-rule="evenodd">
        <g id="直播列表" transform="translate(-104.000000, -251.000000)">
            <g id="编组-6" transform="translate(80.000000, 179.000000)">
                <g id="直播中" transform="translate(24.000000, 72.000000)">
                    <circle id="椭圆形" fill="url(#linearGradient-1)" cx="9" cy="9" r="9"></circle>
                    <path d="M5.7741981,7.41548361 C6.29032429,7.41548361 6.54838738,7.6735467 6.54838738,8.18967289 L6.54838738,12.6806428 C6.54838738,13.196769 6.29032429,13.4548321 5.7741981,13.4548321 C5.25806603,13.4548321 5,13.196769 5,12.6806428 L5,8.18967289 C5,7.6735467 5.25806603,7.41548361 5.7741981,7.41548361 Z M9,5 C9.51613207,5 9.7741981,5.25806309 9.7741981,5.77418928 L9.7741981,12.6812956 C9.7741981,13.1974218 9.51613207,13.4554848 9,13.4554848 C8.48387381,13.4554848 8.22581072,13.1974218 8.22581072,12.6812956 L8.22581072,5.77418046 C8.22581072,5.25806015 8.48387381,5 9,5 Z M12.2258019,8.6238649 C12.741934,8.6238649 13,8.88193094 13,9.39806301 L13,12.6812867 C13,13.1974129 12.741934,13.455476 12.2258019,13.455476 C11.7096757,13.455476 11.4516126,13.1974159 11.4516126,12.6812956 L11.4516126,9.39806301 C11.4516126,8.88193094 11.7096757,8.6238649 12.2258019,8.6238649 Z" id="形状" fill="#FFFFFF" fill-rule="nonzero"></path>
                </g>
            </g>
        </g>
    </g>
</svg>