<?xml version="1.0" encoding="UTF-8"?>
<svg width="23px" height="23px" viewBox="0 0 23 23" version="1.1" xmlns="http://www.w3.org/2000/svg" xmlns:xlink="http://www.w3.org/1999/xlink">
    <!-- Generator: Sketch 55.1 (78136) - https://sketchapp.com -->
    <title>copy link2</title>
    <desc>Created with Sketch.</desc>
    <g id="Q2_GP" stroke="none" stroke-width="1" fill="none" fill-rule="evenodd">
        <g id="Product-detail-1-Copy-3复制-7备份" transform="translate(-412.000000, -797.000000)">
            <g id="share" transform="translate(361.000000, 797.000000)">
                <g id="复制_复制备份" transform="translate(51.551181, 0.000000)">
                    <path d="M11.0191497,0.0191266729 C17.0942819,0.0191266729 22.0191497,4.94399442 22.0191497,11.0191267 C22.0191497,17.0942589 17.0942819,22.0191267 11.0191497,22.0191267 C4.94401744,22.0191267 0.0191496871,17.0942589 0.0191496871,11.0191267 C0.0191496871,4.94399442 4.94401744,0.0191266729 11.0191497,0.0191266729 Z M14,6.9073992 C14,6.65795549 13.9109448,6.44419433 13.732723,6.26597253 C13.5558693,6.09035971 13.3407877,6 13.0913599,6 L6.9073992,6 C6.65795549,6 6.44288984,6.08911885 6.26597253,6.26597253 C6.08911885,6.44288984 6,6.65795549 6,6.9073992 L6,13.0913599 C6,13.3407877 6.08911885,13.5558693 6.26727702,13.7340275 C6.44419433,13.9109448 6.65925998,14 6.90870368,14 L7.81864822,14 L7.81864822,13.2720635 L6.90870368,13.2720635 C6.86029442,13.2720635 6.81703949,13.2542301 6.78143649,13.2186271 C6.74576986,13.184265 6.72800017,13.1397056 6.72800017,13.0913599 L6.72800017,6.9073992 C6.72800017,6.85905357 6.74707435,6.81579863 6.78143649,6.780132 C6.81579863,6.744529 6.86029442,6.72669569 6.90870368,6.72669569 L13.0913599,6.72669569 C13.1397056,6.72669569 13.1829605,6.744529 13.2186271,6.780132 C13.2542301,6.81449414 13.2720635,6.85905357 13.2720635,6.9073992 L13.2720635,7.81734373 L14,7.81734373 L14,6.9073992 Z M16,8.90753996 C16,8.65807347 15.9109303,8.44426324 15.7339841,8.26607743 C15.5570379,8.09037373 15.3419372,8 15.0924528,8 L8.90754718,8 C8.65807871,8 8.44296207,8.08913268 8.26601591,8.26607743 C8.08906974,8.44295855 8,8.65807347 8,8.90753996 L8,15.09246 C8,15.3419424 8.08782869,15.5557368 8.26601591,15.7339862 C8.44296207,15.9096263 8.65807871,16 8.90754718,16 L15.0924528,16 C15.3419372,16 15.5557969,15.912172 15.7339841,15.7339862 C15.9096256,15.5570415 16,15.3419424 16,15.09246 L16,8.90753996 Z" id="形状" fill-opacity="0.65" fill="#000000" fill-rule="nonzero"></path>
                    <g id="fuzhi-(1)" transform="translate(6.000000, 6.000000)"></g>
                </g>
            </g>
        </g>
    </g>
</svg>