<?xml version="1.0" encoding="UTF-8"?>
<svg width="468px" height="468px" viewBox="0 0 468 468" version="1.1" xmlns="http://www.w3.org/2000/svg" xmlns:xlink="http://www.w3.org/1999/xlink">
    <!-- Generator: Sketch 53.2 (72643) - https://sketchapp.com -->
    <title>Group@3x</title>
    <desc>Created with Sketch.</desc>
    <g id="Page-1" stroke="none" stroke-width="1" fill="none" fill-rule="evenodd">
        <g id="孙膑国内" transform="translate(0.000000, -324.000000)">
            <g id="Group" transform="translate(0.000000, 324.000000)">
                <polygon id="Fill-1" fill="#FFFFFF" points="0 468 468 468 468 0 0 0"></polygon>
                <polygon id="Fill-2" fill="#000000" points="12 24 96 24 96 12 12 12"></polygon>
                <polygon id="Fill-3" fill="#000000" points="180 24 240 24 240 12 180 12"></polygon>
                <polygon id="Fill-4" fill="#000000" points="252 24 276 24 276 12 252 12"></polygon>
                <polygon id="Fill-5" fill="#000000" points="300 24 324 24 324 12 300 12"></polygon>
                <polygon id="Fill-6" fill="#000000" points="348 24 360 24 360 12 348 12"></polygon>
                <polygon id="Fill-7" fill="#000000" points="372 24 456 24 456 12 372 12"></polygon>
                <polygon id="Fill-8" fill="#000000" points="12 36 24 36 24 24 12 24"></polygon>
                <polygon id="Fill-9" fill="#000000" points="84 36 96 36 96 24 84 24"></polygon>
                <polygon id="Fill-10" fill="#000000" points="132 36 192 36 192 24 132 24"></polygon>
                <polygon id="Fill-11" fill="#000000" points="240 36 288 36 288 24 240 24"></polygon>
                <polygon id="Fill-12" fill="#000000" points="312 36 324 36 324 24 312 24"></polygon>
                <polygon id="Fill-13" fill="#000000" points="348 36 360 36 360 24 348 24"></polygon>
                <polygon id="Fill-14" fill="#000000" points="372 36 384 36 384 24 372 24"></polygon>
                <polygon id="Fill-15" fill="#000000" points="444 36 456 36 456 24 444 24"></polygon>
                <polygon id="Fill-16" fill="#000000" points="12 48 24 48 24 36 12 36"></polygon>
                <polygon id="Fill-17" fill="#000000" points="36 48 72 48 72 36 36 36"></polygon>
                <polygon id="Fill-18" fill="#000000" points="84 48 96 48 96 36 84 36"></polygon>
                <polygon id="Fill-19" fill="#000000" points="120 48 144 48 144 36 120 36"></polygon>
                <polygon id="Fill-20" fill="#000000" points="168 48 180 48 180 36 168 36"></polygon>
                <polygon id="Fill-21" fill="#000000" points="204 48 216 48 216 36 204 36"></polygon>
                <polygon id="Fill-22" fill="#000000" points="240 48 252 48 252 36 240 36"></polygon>
                <polygon id="Fill-23" fill="#000000" points="264 48 276 48 276 36 264 36"></polygon>
                <polygon id="Fill-24" fill="#000000" points="288 48 360 48 360 36 288 36"></polygon>
                <polygon id="Fill-25" fill="#000000" points="372 48 384 48 384 36 372 36"></polygon>
                <polygon id="Fill-26" fill="#000000" points="396 48 432 48 432 36 396 36"></polygon>
                <polygon id="Fill-27" fill="#000000" points="444 48 456 48 456 36 444 36"></polygon>
                <polygon id="Fill-28" fill="#000000" points="12 60 24 60 24 48 12 48"></polygon>
                <polygon id="Fill-29" fill="#000000" points="36 60 72 60 72 48 36 48"></polygon>
                <polygon id="Fill-30" fill="#000000" points="84 60 96 60 96 48 84 48"></polygon>
                <polygon id="Fill-31" fill="#000000" points="120 60 144 60 144 48 120 48"></polygon>
                <polygon id="Fill-32" fill="#000000" points="156 60 168 60 168 48 156 48"></polygon>
                <polygon id="Fill-33" fill="#000000" points="204 60 216 60 216 48 204 48"></polygon>
                <polygon id="Fill-34" fill="#000000" points="240 60 288 60 288 48 240 48"></polygon>
                <polygon id="Fill-35" fill="#000000" points="312 60 324 60 324 48 312 48"></polygon>
                <polygon id="Fill-36" fill="#000000" points="336 60 348 60 348 48 336 48"></polygon>
                <polygon id="Fill-37" fill="#000000" points="372 60 384 60 384 48 372 48"></polygon>
                <polygon id="Fill-38" fill="#000000" points="396 60 432 60 432 48 396 48"></polygon>
                <polygon id="Fill-39" fill="#000000" points="444 60 456 60 456 48 444 48"></polygon>
                <polygon id="Fill-40" fill="#000000" points="12 72 24 72 24 60 12 60"></polygon>
                <polygon id="Fill-41" fill="#000000" points="36 72 72 72 72 60 36 60"></polygon>
                <polygon id="Fill-42" fill="#000000" points="84 72 96 72 96 60 84 60"></polygon>
                <polygon id="Fill-43" fill="#000000" points="108 72 120 72 120 60 108 60"></polygon>
                <polygon id="Fill-44" fill="#000000" points="144 72 156 72 156 60 144 60"></polygon>
                <polygon id="Fill-45" fill="#000000" points="180 72 192 72 192 60 180 60"></polygon>
                <polygon id="Fill-46" fill="#000000" points="204 72 216 72 216 60 204 60"></polygon>
                <polygon id="Fill-47" fill="#000000" points="252 72 276 72 276 60 252 60"></polygon>
                <polygon id="Fill-48" fill="#000000" points="288 72 312 72 312 60 288 60"></polygon>
                <polygon id="Fill-49" fill="#000000" points="336 72 348 72 348 60 336 60"></polygon>
                <polygon id="Fill-50" fill="#000000" points="372 72 384 72 384 60 372 60"></polygon>
                <polygon id="Fill-51" fill="#000000" points="396 72 432 72 432 60 396 60"></polygon>
                <polygon id="Fill-52" fill="#000000" points="444 72 456 72 456 60 444 60"></polygon>
                <polygon id="Fill-53" fill="#000000" points="12 84 24 84 24 72 12 72"></polygon>
                <polygon id="Fill-54" fill="#000000" points="84 84 96 84 96 72 84 72"></polygon>
                <polygon id="Fill-55" fill="#000000" points="144 84 156 84 156 72 144 72"></polygon>
                <polygon id="Fill-56" fill="#000000" points="168 84 192 84 192 72 168 72"></polygon>
                <polygon id="Fill-57" fill="#000000" points="204 84 216 84 216 72 204 72"></polygon>
                <polygon id="Fill-58" fill="#000000" points="252 84 264 84 264 72 252 72"></polygon>
                <polygon id="Fill-59" fill="#000000" points="276 84 288 84 288 72 276 72"></polygon>
                <polygon id="Fill-60" fill="#000000" points="312 84 324 84 324 72 312 72"></polygon>
                <polygon id="Fill-61" fill="#000000" points="372 84 384 84 384 72 372 72"></polygon>
                <polygon id="Fill-62" fill="#000000" points="444 84 456 84 456 72 444 72"></polygon>
                <polygon id="Fill-63" fill="#000000" points="12 96 96 96 96 84 12 84"></polygon>
                <polygon id="Fill-64" fill="#000000" points="108 96 120 96 120 84 108 84"></polygon>
                <polygon id="Fill-65" fill="#000000" points="132 96 144 96 144 84 132 84"></polygon>
                <polygon id="Fill-66" fill="#000000" points="156 96 168 96 168 84 156 84"></polygon>
                <polygon id="Fill-67" fill="#000000" points="180 96 192 96 192 84 180 84"></polygon>
                <polygon id="Fill-68" fill="#000000" points="204 96 216 96 216 84 204 84"></polygon>
                <polygon id="Fill-69" fill="#000000" points="228 96 240 96 240 84 228 84"></polygon>
                <polygon id="Fill-70" fill="#000000" points="252 96 264 96 264 84 252 84"></polygon>
                <polygon id="Fill-71" fill="#000000" points="276 96 288 96 288 84 276 84"></polygon>
                <polygon id="Fill-72" fill="#000000" points="300 96 312 96 312 84 300 84"></polygon>
                <polygon id="Fill-73" fill="#000000" points="324 96 336 96 336 84 324 84"></polygon>
                <polygon id="Fill-74" fill="#000000" points="348 96 360 96 360 84 348 84"></polygon>
                <polygon id="Fill-75" fill="#000000" points="372 96 456 96 456 84 372 84"></polygon>
                <polygon id="Fill-76" fill="#000000" points="108 108 120 108 120 96 108 96"></polygon>
                <polygon id="Fill-77" fill="#000000" points="132 108 144 108 144 96 132 96"></polygon>
                <polygon id="Fill-78" fill="#000000" points="156 108 180 108 180 96 156 96"></polygon>
                <polygon id="Fill-79" fill="#000000" points="204 108 216 108 216 96 204 96"></polygon>
                <polygon id="Fill-80" fill="#000000" points="240 108 264 108 264 96 240 96"></polygon>
                <polygon id="Fill-81" fill="#000000" points="336 108 360 108 360 96 336 96"></polygon>
                <polygon id="Fill-82" fill="#000000" points="36 120 60 120 60 108 36 108"></polygon>
                <polygon id="Fill-83" fill="#000000" points="84 120 120 120 120 108 84 108"></polygon>
                <polygon id="Fill-84" fill="#000000" points="132 120 180 120 180 108 132 108"></polygon>
                <polygon id="Fill-85" fill="#000000" points="192 120 204 120 204 108 192 108"></polygon>
                <polygon id="Fill-86" fill="#000000" points="264 120 300 120 300 108 264 108"></polygon>
                <polygon id="Fill-87" fill="#000000" points="312 120 324 120 324 108 312 108"></polygon>
                <polygon id="Fill-88" fill="#000000" points="336 120 384 120 384 108 336 108"></polygon>
                <polygon id="Fill-89" fill="#000000" points="396 120 408 120 408 108 396 108"></polygon>
                <polygon id="Fill-90" fill="#000000" points="24 132 36 132 36 120 24 120"></polygon>
                <polygon id="Fill-91" fill="#000000" points="48 132 72 132 72 120 48 120"></polygon>
                <polygon id="Fill-92" fill="#000000" points="180 132 228 132 228 120 180 120"></polygon>
                <polygon id="Fill-93" fill="#000000" points="240 132 300 132 300 120 240 120"></polygon>
                <polygon id="Fill-94" fill="#000000" points="312 132 384 132 384 120 312 120"></polygon>
                <polygon id="Fill-95" fill="#000000" points="408 132 432 132 432 120 408 120"></polygon>
                <polygon id="Fill-96" fill="#000000" points="12 144 36 144 36 132 12 132"></polygon>
                <polygon id="Fill-97" fill="#000000" points="84 144 96 144 96 132 84 132"></polygon>
                <polygon id="Fill-98" fill="#000000" points="108 144 120 144 120 132 108 132"></polygon>
                <polygon id="Fill-99" fill="#000000" points="132 144 168 144 168 132 132 132"></polygon>
                <polygon id="Fill-100" fill="#000000" points="240 144 252 144 252 132 240 132"></polygon>
                <polygon id="Fill-101" fill="#000000" points="288 144 300 144 300 132 288 132"></polygon>
                <polygon id="Fill-102" fill="#000000" points="312 144 324 144 324 132 312 132"></polygon>
                <polygon id="Fill-103" fill="#000000" points="336 144 348 144 348 132 336 132"></polygon>
                <polygon id="Fill-104" fill="#000000" points="360 144 372 144 372 132 360 132"></polygon>
                <polygon id="Fill-105" fill="#000000" points="384 144 408 144 408 132 384 132"></polygon>
                <polygon id="Fill-106" fill="#000000" points="420 144 432 144 432 132 420 132"></polygon>
                <polygon id="Fill-107" fill="#000000" points="12 156 24 156 24 144 12 144"></polygon>
                <polygon id="Fill-108" fill="#000000" points="72 156 84 156 84 144 72 144"></polygon>
                <polygon id="Fill-109" fill="#000000" points="96 156 144 156 144 144 96 144"></polygon>
                <polygon id="Fill-110" fill="#000000" points="156 156 216 156 216 144 156 144"></polygon>
                <polygon id="Fill-111" fill="#000000" points="240 156 252 156 252 144 240 144"></polygon>
                <polygon id="Fill-112" fill="#000000" points="264 156 288 156 288 144 264 144"></polygon>
                <polygon id="Fill-113" fill="#000000" points="300 156 348 156 348 144 300 144"></polygon>
                <polygon id="Fill-114" fill="#000000" points="384 156 396 156 396 144 384 144"></polygon>
                <polygon id="Fill-115" fill="#000000" points="408 156 456 156 456 144 408 144"></polygon>
                <polygon id="Fill-116" fill="#000000" points="12 168 24 168 24 156 12 156"></polygon>
                <polygon id="Fill-117" fill="#000000" points="36 168 60 168 60 156 36 156"></polygon>
                <polygon id="Fill-118" fill="#000000" points="72 168 108 168 108 156 72 156"></polygon>
                <polygon id="Fill-119" fill="#000000" points="120 168 132 168 132 156 120 156"></polygon>
                <polygon id="Fill-120" fill="#000000" points="180 168 192 168 192 156 180 156"></polygon>
                <polygon id="Fill-121" fill="#000000" points="216 168 252 168 252 156 216 156"></polygon>
                <polygon id="Fill-122" fill="#000000" points="276 168 288 168 288 156 276 156"></polygon>
                <polygon id="Fill-123" fill="#000000" points="312 168 336 168 336 156 312 156"></polygon>
                <polygon id="Fill-124" fill="#000000" points="360 168 384 168 384 156 360 156"></polygon>
                <polygon id="Fill-125" fill="#000000" points="396 168 444 168 444 156 396 156"></polygon>
                <polygon id="Fill-126" fill="#000000" points="36 180 84 180 84 168 36 168"></polygon>
                <polygon id="Fill-127" fill="#000000" points="96 180 108 180 108 168 96 168"></polygon>
                <polygon id="Fill-128" fill="#000000" points="120 180 144 180 144 168 120 168"></polygon>
                <polygon id="Fill-129" fill="#000000" points="156 180 168 180 168 168 156 168"></polygon>
                <polygon id="Fill-130" fill="#000000" points="180 180 192 180 192 168 180 168"></polygon>
                <polygon id="Fill-131" fill="#000000" points="228 180 264 180 264 168 228 168"></polygon>
                <polygon id="Fill-132" fill="#000000" points="276 180 300 180 300 168 276 168"></polygon>
                <polygon id="Fill-133" fill="#000000" points="312 180 348 180 348 168 312 168"></polygon>
                <polygon id="Fill-134" fill="#000000" points="372 180 408 180 408 168 372 168"></polygon>
                <polygon id="Fill-135" fill="#000000" points="420 180 432 180 432 168 420 168"></polygon>
                <polygon id="Fill-136" fill="#000000" points="444 180 456 180 456 168 444 168"></polygon>
                <polygon id="Fill-137" fill="#000000" points="84 192 108 192 108 180 84 180"></polygon>
                <polygon id="Fill-138" fill="#000000" points="144 192 156 192 156 180 144 180"></polygon>
                <polygon id="Fill-139" fill="#000000" points="180 192 192 192 192 180 180 180"></polygon>
                <polygon id="Fill-140" fill="#000000" points="204 192 252 192 252 180 204 180"></polygon>
                <polygon id="Fill-141" fill="#000000" points="264 192 276 192 276 180 264 180"></polygon>
                <polygon id="Fill-142" fill="#000000" points="300 192 312 192 312 180 300 180"></polygon>
                <polygon id="Fill-143" fill="#000000" points="324 192 336 192 336 180 324 180"></polygon>
                <polygon id="Fill-144" fill="#000000" points="360 192 396 192 396 180 360 180"></polygon>
                <polygon id="Fill-145" fill="#000000" points="420 192 444 192 444 180 420 180"></polygon>
                <polygon id="Fill-146" fill="#000000" points="36 204 48 204 48 192 36 192"></polygon>
                <polygon id="Fill-147" fill="#000000" points="72 204 84 204 84 192 72 192"></polygon>
                <polygon id="Fill-148" fill="#000000" points="168 204 180 204 180 192 168 192"></polygon>
                <polygon id="Fill-149" fill="#000000" points="216 204 228 204 228 192 216 192"></polygon>
                <polygon id="Fill-150" fill="#000000" points="252 204 288 204 288 192 252 192"></polygon>
                <polygon id="Fill-151" fill="#000000" points="300 204 312 204 312 192 300 192"></polygon>
                <polygon id="Fill-152" fill="#000000" points="324 204 336 204 336 192 324 192"></polygon>
                <polygon id="Fill-153" fill="#000000" points="384 204 408 204 408 192 384 192"></polygon>
                <polygon id="Fill-154" fill="#000000" points="12 216 36 216 36 204 12 204"></polygon>
                <polygon id="Fill-155" fill="#000000" points="60 216 72 216 72 204 60 204"></polygon>
                <polygon id="Fill-156" fill="#000000" points="84 216 108 216 108 204 84 204"></polygon>
                <polygon id="Fill-157" fill="#000000" points="120 216 168 216 168 204 120 204"></polygon>
                <polygon id="Fill-158" fill="#000000" points="216 216 264 216 264 204 216 204"></polygon>
                <polygon id="Fill-159" fill="#000000" points="276 216 300 216 300 204 276 204"></polygon>
                <polygon id="Fill-160" fill="#000000" points="312 216 324 216 324 204 312 204"></polygon>
                <polygon id="Fill-161" fill="#000000" points="336 216 348 216 348 204 336 204"></polygon>
                <polygon id="Fill-162" fill="#000000" points="408 216 432 216 432 204 408 204"></polygon>
                <polygon id="Fill-163" fill="#000000" points="444 216 456 216 456 204 444 204"></polygon>
                <polygon id="Fill-164" fill="#000000" points="12 228 24 228 24 216 12 216"></polygon>
                <polygon id="Fill-165" fill="#000000" points="36 228 48 228 48 216 36 216"></polygon>
                <polygon id="Fill-166" fill="#000000" points="72 228 84 228 84 216 72 216"></polygon>
                <polygon id="Fill-167" fill="#000000" points="144 228 180 228 180 216 144 216"></polygon>
                <polygon id="Fill-168" fill="#000000" points="192 228 204 228 204 216 192 216"></polygon>
                <polygon id="Fill-169" fill="#000000" points="216 228 228 228 228 216 216 216"></polygon>
                <polygon id="Fill-170" fill="#000000" points="252 228 264 228 264 216 252 216"></polygon>
                <polygon id="Fill-171" fill="#000000" points="312 228 324 228 324 216 312 216"></polygon>
                <polygon id="Fill-172" fill="#000000" points="336 228 348 228 348 216 336 216"></polygon>
                <polygon id="Fill-173" fill="#000000" points="372 228 384 228 384 216 372 216"></polygon>
                <polygon id="Fill-174" fill="#000000" points="408 228 432 228 432 216 408 216"></polygon>
                <polygon id="Fill-175" fill="#000000" points="444 228 456 228 456 216 444 216"></polygon>
                <polygon id="Fill-176" fill="#000000" points="24 240 36 240 36 228 24 228"></polygon>
                <polygon id="Fill-177" fill="#000000" points="60 240 72 240 72 228 60 228"></polygon>
                <polygon id="Fill-178" fill="#000000" points="84 240 96 240 96 228 84 228"></polygon>
                <polygon id="Fill-179" fill="#000000" points="108 240 120 240 120 228 108 228"></polygon>
                <polygon id="Fill-180" fill="#000000" points="132 240 144 240 144 228 132 228"></polygon>
                <polygon id="Fill-181" fill="#000000" points="156 240 168 240 168 228 156 228"></polygon>
                <polygon id="Fill-182" fill="#000000" points="180 240 192 240 192 228 180 228"></polygon>
                <polygon id="Fill-183" fill="#000000" points="204 240 228 240 228 228 204 228"></polygon>
                <polygon id="Fill-184" fill="#000000" points="252 240 264 240 264 228 252 228"></polygon>
                <polygon id="Fill-185" fill="#000000" points="276 240 288 240 288 228 276 228"></polygon>
                <polygon id="Fill-186" fill="#000000" points="300 240 312 240 312 228 300 228"></polygon>
                <polygon id="Fill-187" fill="#000000" points="336 240 348 240 348 228 336 228"></polygon>
                <polygon id="Fill-188" fill="#000000" points="384 240 396 240 396 228 384 228"></polygon>
                <polygon id="Fill-189" fill="#000000" points="432 240 456 240 456 228 432 228"></polygon>
                <polygon id="Fill-190" fill="#000000" points="12 252 24 252 24 240 12 240"></polygon>
                <polygon id="Fill-191" fill="#000000" points="36 252 60 252 60 240 36 240"></polygon>
                <polygon id="Fill-192" fill="#000000" points="96 252 108 252 108 240 96 240"></polygon>
                <polygon id="Fill-193" fill="#000000" points="120 252 144 252 144 240 120 240"></polygon>
                <polygon id="Fill-194" fill="#000000" points="156 252 168 252 168 240 156 240"></polygon>
                <polygon id="Fill-195" fill="#000000" points="192 252 228 252 228 240 192 240"></polygon>
                <polygon id="Fill-196" fill="#000000" points="264 252 276 252 276 240 264 240"></polygon>
                <polygon id="Fill-197" fill="#000000" points="300 252 312 252 312 240 300 240"></polygon>
                <polygon id="Fill-198" fill="#000000" points="324 252 360 252 360 240 324 240"></polygon>
                <polygon id="Fill-199" fill="#000000" points="384 252 420 252 420 240 384 240"></polygon>
                <polygon id="Fill-200" fill="#000000" points="444 252 456 252 456 240 444 240"></polygon>
                <polygon id="Fill-201" fill="#000000" points="36 264 48 264 48 252 36 252"></polygon>
                <polygon id="Fill-202" fill="#000000" points="72 264 132 264 132 252 72 252"></polygon>
                <polygon id="Fill-203" fill="#000000" points="144 264 156 264 156 252 144 252"></polygon>
                <polygon id="Fill-204" fill="#000000" points="168 264 216 264 216 252 168 252"></polygon>
                <polygon id="Fill-205" fill="#000000" points="252 264 288 264 288 252 252 252"></polygon>
                <polygon id="Fill-206" fill="#000000" points="324 264 372 264 372 252 324 252"></polygon>
                <polygon id="Fill-207" fill="#000000" points="396 264 408 264 408 252 396 252"></polygon>
                <polygon id="Fill-208" fill="#000000" points="24 276 36 276 36 264 24 264"></polygon>
                <polygon id="Fill-209" fill="#000000" points="48 276 72 276 72 264 48 264"></polygon>
                <polygon id="Fill-210" fill="#000000" points="96 276 108 276 108 264 96 264"></polygon>
                <polygon id="Fill-211" fill="#000000" points="120 276 144 276 144 264 120 264"></polygon>
                <polygon id="Fill-212" fill="#000000" points="168 276 216 276 216 264 168 264"></polygon>
                <polygon id="Fill-213" fill="#000000" points="264 276 288 276 288 264 264 264"></polygon>
                <polygon id="Fill-214" fill="#000000" points="312 276 324 276 324 264 312 264"></polygon>
                <polygon id="Fill-215" fill="#000000" points="384 276 396 276 396 264 384 264"></polygon>
                <polygon id="Fill-216" fill="#000000" points="420 276 432 276 432 264 420 264"></polygon>
                <polygon id="Fill-217" fill="#000000" points="12 288 24 288 24 276 12 276"></polygon>
                <polygon id="Fill-218" fill="#000000" points="84 288 108 288 108 276 84 276"></polygon>
                <polygon id="Fill-219" fill="#000000" points="144 288 168 288 168 276 144 276"></polygon>
                <polygon id="Fill-220" fill="#000000" points="192 288 216 288 216 276 192 276"></polygon>
                <polygon id="Fill-221" fill="#000000" points="228 288 276 288 276 276 228 276"></polygon>
                <polygon id="Fill-222" fill="#000000" points="288 288 300 288 300 276 288 276"></polygon>
                <polygon id="Fill-223" fill="#000000" points="312 288 324 288 324 276 312 276"></polygon>
                <polygon id="Fill-224" fill="#000000" points="372 288 384 288 384 276 372 276"></polygon>
                <polygon id="Fill-225" fill="#000000" points="396 288 408 288 408 276 396 276"></polygon>
                <polygon id="Fill-226" fill="#000000" points="420 288 432 288 432 276 420 276"></polygon>
                <polygon id="Fill-227" fill="#000000" points="36 300 48 300 48 288 36 288"></polygon>
                <polygon id="Fill-228" fill="#000000" points="72 300 84 300 84 288 72 288"></polygon>
                <polygon id="Fill-229" fill="#000000" points="144 300 156 300 156 288 144 288"></polygon>
                <polygon id="Fill-230" fill="#000000" points="180 300 204 300 204 288 180 288"></polygon>
                <polygon id="Fill-231" fill="#000000" points="216 300 252 300 252 288 216 288"></polygon>
                <polygon id="Fill-232" fill="#000000" points="264 300 288 300 288 288 264 288"></polygon>
                <polygon id="Fill-233" fill="#000000" points="336 300 360 300 360 288 336 288"></polygon>
                <polygon id="Fill-234" fill="#000000" points="372 300 384 300 384 288 372 288"></polygon>
                <polygon id="Fill-235" fill="#000000" points="408 300 456 300 456 288 408 288"></polygon>
                <polygon id="Fill-236" fill="#000000" points="24 312 36 312 36 300 24 300"></polygon>
                <polygon id="Fill-237" fill="#000000" points="84 312 120 312 120 300 84 300"></polygon>
                <polygon id="Fill-238" fill="#000000" points="144 312 168 312 168 300 144 300"></polygon>
                <polygon id="Fill-239" fill="#000000" points="180 312 204 312 204 300 180 300"></polygon>
                <polygon id="Fill-240" fill="#000000" points="228 312 240 312 240 300 228 300"></polygon>
                <polygon id="Fill-241" fill="#000000" points="264 312 276 312 276 300 264 300"></polygon>
                <polygon id="Fill-242" fill="#000000" points="300 312 312 312 312 300 300 300"></polygon>
                <polygon id="Fill-243" fill="#000000" points="324 312 336 312 336 300 324 300"></polygon>
                <polygon id="Fill-244" fill="#000000" points="348 312 372 312 372 300 348 300"></polygon>
                <polygon id="Fill-245" fill="#000000" points="408 312 432 312 432 300 408 300"></polygon>
                <polygon id="Fill-246" fill="#000000" points="444 312 456 312 456 300 444 300"></polygon>
                <polygon id="Fill-247" fill="#000000" points="24 324 60 324 60 312 24 312"></polygon>
                <polygon id="Fill-248" fill="#000000" points="72 324 84 324 84 312 72 312"></polygon>
                <polygon id="Fill-249" fill="#000000" points="96 324 156 324 156 312 96 312"></polygon>
                <polygon id="Fill-250" fill="#000000" points="168 324 228 324 228 312 168 312"></polygon>
                <polygon id="Fill-251" fill="#000000" points="240 324 312 324 312 312 240 312"></polygon>
                <polygon id="Fill-252" fill="#000000" points="324 324 336 324 336 312 324 312"></polygon>
                <polygon id="Fill-253" fill="#000000" points="360 324 372 324 372 312 360 312"></polygon>
                <polygon id="Fill-254" fill="#000000" points="384 324 396 324 396 312 384 312"></polygon>
                <polygon id="Fill-255" fill="#000000" points="408 324 420 324 420 312 408 312"></polygon>
                <polygon id="Fill-256" fill="#000000" points="432 324 456 324 456 312 432 312"></polygon>
                <polygon id="Fill-257" fill="#000000" points="24 336 48 336 48 324 24 324"></polygon>
                <polygon id="Fill-258" fill="#000000" points="84 336 132 336 132 324 84 324"></polygon>
                <polygon id="Fill-259" fill="#000000" points="144 336 204 336 204 324 144 324"></polygon>
                <polygon id="Fill-260" fill="#000000" points="240 336 264 336 264 324 240 324"></polygon>
                <polygon id="Fill-261" fill="#000000" points="288 336 300 336 300 324 288 324"></polygon>
                <polygon id="Fill-262" fill="#000000" points="312 336 324 336 324 324 312 324"></polygon>
                <polygon id="Fill-263" fill="#000000" points="384 336 444 336 444 324 384 324"></polygon>
                <polygon id="Fill-264" fill="#000000" points="12 348 24 348 24 336 12 336"></polygon>
                <polygon id="Fill-265" fill="#000000" points="72 348 84 348 84 336 72 336"></polygon>
                <polygon id="Fill-266" fill="#000000" points="96 348 120 348 120 336 96 336"></polygon>
                <polygon id="Fill-267" fill="#000000" points="132 348 144 348 144 336 132 336"></polygon>
                <polygon id="Fill-268" fill="#000000" points="168 348 216 348 216 336 168 336"></polygon>
                <polygon id="Fill-269" fill="#000000" points="240 348 264 348 264 336 240 336"></polygon>
                <polygon id="Fill-270" fill="#000000" points="288 348 300 348 300 336 288 336"></polygon>
                <polygon id="Fill-271" fill="#000000" points="324 348 348 348 348 336 324 336"></polygon>
                <polygon id="Fill-272" fill="#000000" points="360 348 372 348 372 336 360 336"></polygon>
                <polygon id="Fill-273" fill="#000000" points="384 348 420 348 420 336 384 336"></polygon>
                <polygon id="Fill-274" fill="#000000" points="432 348 444 348 444 336 432 336"></polygon>
                <polygon id="Fill-275" fill="#000000" points="48 360 96 360 96 348 48 348"></polygon>
                <polygon id="Fill-276" fill="#000000" points="120 360 144 360 144 348 120 348"></polygon>
                <polygon id="Fill-277" fill="#000000" points="156 360 180 360 180 348 156 348"></polygon>
                <polygon id="Fill-278" fill="#000000" points="300 360 324 360 324 348 300 348"></polygon>
                <polygon id="Fill-279" fill="#000000" points="348 360 408 360 408 348 348 348"></polygon>
                <polygon id="Fill-280" fill="#000000" points="444 360 456 360 456 348 444 348"></polygon>
                <polygon id="Fill-281" fill="#000000" points="108 372 144 372 144 360 108 360"></polygon>
                <polygon id="Fill-282" fill="#000000" points="192 372 204 372 204 360 192 360"></polygon>
                <polygon id="Fill-283" fill="#000000" points="216 372 228 372 228 360 216 360"></polygon>
                <polygon id="Fill-284" fill="#000000" points="252 372 264 372 264 360 252 360"></polygon>
                <polygon id="Fill-285" fill="#000000" points="276 372 288 372 288 360 276 360"></polygon>
                <polygon id="Fill-286" fill="#000000" points="300 372 312 372 312 360 300 360"></polygon>
                <polygon id="Fill-287" fill="#000000" points="324 372 336 372 336 360 324 360"></polygon>
                <polygon id="Fill-288" fill="#000000" points="348 372 360 372 360 360 348 360"></polygon>
                <polygon id="Fill-289" fill="#000000" points="396 372 432 372 432 360 396 360"></polygon>
                <polygon id="Fill-290" fill="#000000" points="444 372 456 372 456 360 444 360"></polygon>
                <polygon id="Fill-291" fill="#000000" points="12 384 96 384 96 372 12 372"></polygon>
                <polygon id="Fill-292" fill="#000000" points="108 384 120 384 120 372 108 372"></polygon>
                <polygon id="Fill-293" fill="#000000" points="156 384 192 384 192 372 156 372"></polygon>
                <polygon id="Fill-294" fill="#000000" points="204 384 228 384 228 372 204 372"></polygon>
                <polygon id="Fill-295" fill="#000000" points="240 384 264 384 264 372 240 372"></polygon>
                <polygon id="Fill-296" fill="#000000" points="324 384 336 384 336 372 324 372"></polygon>
                <polygon id="Fill-297" fill="#000000" points="348 384 360 384 360 372 348 372"></polygon>
                <polygon id="Fill-298" fill="#000000" points="372 384 384 384 384 372 372 372"></polygon>
                <polygon id="Fill-299" fill="#000000" points="396 384 420 384 420 372 396 372"></polygon>
                <polygon id="Fill-300" fill="#000000" points="444 384 456 384 456 372 444 372"></polygon>
                <polygon id="Fill-301" fill="#000000" points="12 396 24 396 24 384 12 384"></polygon>
                <polygon id="Fill-302" fill="#000000" points="84 396 96 396 96 384 84 384"></polygon>
                <polygon id="Fill-303" fill="#000000" points="156 396 168 396 168 384 156 384"></polygon>
                <polygon id="Fill-304" fill="#000000" points="204 396 216 396 216 384 204 384"></polygon>
                <polygon id="Fill-305" fill="#000000" points="228 396 240 396 240 384 228 384"></polygon>
                <polygon id="Fill-306" fill="#000000" points="252 396 300 396 300 384 252 384"></polygon>
                <polygon id="Fill-307" fill="#000000" points="336 396 360 396 360 384 336 384"></polygon>
                <polygon id="Fill-308" fill="#000000" points="396 396 420 396 420 384 396 384"></polygon>
                <polygon id="Fill-309" fill="#000000" points="432 396 444 396 444 384 432 384"></polygon>
                <polygon id="Fill-310" fill="#000000" points="12 408 24 408 24 396 12 396"></polygon>
                <polygon id="Fill-311" fill="#000000" points="36 408 72 408 72 396 36 396"></polygon>
                <polygon id="Fill-312" fill="#000000" points="84 408 96 408 96 396 84 396"></polygon>
                <polygon id="Fill-313" fill="#000000" points="132 408 168 408 168 396 132 396"></polygon>
                <polygon id="Fill-314" fill="#000000" points="192 408 216 408 216 396 192 396"></polygon>
                <polygon id="Fill-315" fill="#000000" points="240 408 264 408 264 396 240 396"></polygon>
                <polygon id="Fill-316" fill="#000000" points="300 408 312 408 312 396 300 396"></polygon>
                <polygon id="Fill-317" fill="#000000" points="348 408 420 408 420 396 348 396"></polygon>
                <polygon id="Fill-318" fill="#000000" points="432 408 444 408 444 396 432 396"></polygon>
                <polygon id="Fill-319" fill="#000000" points="12 420 24 420 24 408 12 408"></polygon>
                <polygon id="Fill-320" fill="#000000" points="36 420 72 420 72 408 36 408"></polygon>
                <polygon id="Fill-321" fill="#000000" points="84 420 96 420 96 408 84 408"></polygon>
                <polygon id="Fill-322" fill="#000000" points="108 420 180 420 180 408 108 408"></polygon>
                <polygon id="Fill-323" fill="#000000" points="228 420 240 420 240 408 228 408"></polygon>
                <polygon id="Fill-324" fill="#000000" points="300 420 324 420 324 408 300 408"></polygon>
                <polygon id="Fill-325" fill="#000000" points="336 420 360 420 360 408 336 408"></polygon>
                <polygon id="Fill-326" fill="#000000" points="372 420 384 420 384 408 372 408"></polygon>
                <polygon id="Fill-327" fill="#000000" points="396 420 408 420 408 408 396 408"></polygon>
                <polygon id="Fill-328" fill="#000000" points="420 420 432 420 432 408 420 408"></polygon>
                <polygon id="Fill-329" fill="#000000" points="12 432 24 432 24 420 12 420"></polygon>
                <polygon id="Fill-330" fill="#000000" points="36 432 72 432 72 420 36 420"></polygon>
                <polygon id="Fill-331" fill="#000000" points="84 432 96 432 96 420 84 420"></polygon>
                <polygon id="Fill-332" fill="#000000" points="108 432 120 432 120 420 108 420"></polygon>
                <polygon id="Fill-333" fill="#000000" points="204 432 240 432 240 420 204 420"></polygon>
                <polygon id="Fill-334" fill="#000000" points="252 432 264 432 264 420 252 420"></polygon>
                <polygon id="Fill-335" fill="#000000" points="276 432 324 432 324 420 276 420"></polygon>
                <polygon id="Fill-336" fill="#000000" points="336 432 360 432 360 420 336 420"></polygon>
                <polygon id="Fill-337" fill="#000000" points="372 432 420 432 420 420 372 420"></polygon>
                <polygon id="Fill-338" fill="#000000" points="432 432 444 432 444 420 432 420"></polygon>
                <polygon id="Fill-339" fill="#000000" points="12 444 24 444 24 432 12 432"></polygon>
                <polygon id="Fill-340" fill="#000000" points="84 444 96 444 96 432 84 432"></polygon>
                <polygon id="Fill-341" fill="#000000" points="120 444 144 444 144 432 120 432"></polygon>
                <polygon id="Fill-342" fill="#000000" points="168 444 192 444 192 432 168 432"></polygon>
                <polygon id="Fill-343" fill="#000000" points="204 444 228 444 228 432 204 432"></polygon>
                <polygon id="Fill-344" fill="#000000" points="240 444 276 444 276 432 240 432"></polygon>
                <polygon id="Fill-345" fill="#000000" points="312 444 324 444 324 432 312 432"></polygon>
                <polygon id="Fill-346" fill="#000000" points="360 444 372 444 372 432 360 432"></polygon>
                <polygon id="Fill-347" fill="#000000" points="408 444 432 444 432 432 408 432"></polygon>
                <polygon id="Fill-348" fill="#000000" points="12 456 96 456 96 444 12 444"></polygon>
                <polygon id="Fill-349" fill="#000000" points="132 456 144 456 144 444 132 444"></polygon>
                <polygon id="Fill-350" fill="#000000" points="168 456 180 456 180 444 168 444"></polygon>
                <polygon id="Fill-351" fill="#000000" points="204 456 216 456 216 444 204 444"></polygon>
                <polygon id="Fill-352" fill="#000000" points="228 456 240 456 240 444 228 444"></polygon>
                <polygon id="Fill-353" fill="#000000" points="252 456 264 456 264 444 252 444"></polygon>
                <polygon id="Fill-354" fill="#000000" points="300 456 348 456 348 444 300 444"></polygon>
                <polygon id="Fill-355" fill="#000000" points="360 456 372 456 372 444 360 444"></polygon>
                <polygon id="Fill-356" fill="#000000" points="384 456 396 456 396 444 384 444"></polygon>
                <polygon id="Fill-357" fill="#000000" points="408 456 456 456 456 444 408 444"></polygon>
            </g>
        </g>
    </g>
</svg>